{"title":"Faraway 2014 UNRATED HDRIP x264 AC3 TiTAN","uid":11890418,"size":1677591959,"categoryP":"video","categoryS":"movies","magnet":"?xt=urn:btih:6e6bb1803fc7325e3bc73d6949c02363720d012a&amp;dn=Faraway+2014+UNRATED+HDRIP+x264+AC3+TiTAN&amp;tr=udp%3A%2F%2Ftracker.openbittorrent.com%3A80&amp;tr=udp%3A%2F%2Fopen.demonii.com%3A1337&amp;tr=udp%3A%2F%2Ftracker.coppersurfer.tk%3A6969&amp;tr=udp%3A%2F%2Fexodus.desync.com%3A6969","seeders":15,"leechers":2,"uploader":"xxxlavalxxx","files":3,"time":1430983179,"description":" &lt;a href=&quot;http://extraimago.com/image/2Wi&quot; rel=&quot;nofollow&quot; target=&quot;_NEW&quot;&gt;http://extraimago.com/image/2Wi&lt;/a&gt;\n &lt;a href=&quot;\nhttp://www.imdb.com/title/tt2447338/&quot; rel=&quot;nofollow&quot; target=&quot;_NEW&quot;&gt;\nhttp://www.imdb.com/title/tt2447338/&lt;/a&gt;\n\n\nAudrey, a determined young American woman, arrives in the Philippines with a mysterious mission, little money, and no chance of success. But when she enlists the help of two friendly locals, Hazel and Rey, and an extremely unfriendly American expatriate, Nick, suddenly the possibility of success comes into view. All they have to do is cross 300 miles of roads, jungles, and ocean, ward off the attacks of a vicious local motorcycle gang, and keep themselves from killing each other. It's going to be a bumpy ride.\n\nDirector: Randal Kamradt\nWriter: Randal Kamradt\nStars: Dana Jamison, Nick Medina, Genelyka Castin\nGenres: Adventure | Drama | Fantasy\nCountry: Philippines | USA\nLanguage: English | Tagalog\n\n\nFormat                                   : Matroska\nFormat version                           : Version 2\nFile size                                : 1.56 GiB\nDuration                                 : 1h 47mn\nOverall bit rate mode                    : Variable\nOverall bit rate                         : 2 074 Kbps\nEncoded date                             : UTC 2015-04-03 01:23:25\n\n\nVideo\nID                                       : 1\nFormat                                   : AVC\nFormat/Info                              : Advanced Video Codec\nFormat profile                           : &lt;a class=&quot;__cf_email__&quot; href=&quot;/cdn-cgi/l/email-protection&quot; data-cfemail=&quot;80c8e9e7e8c0ccb4aeb1&quot;&gt;[email&amp;#160;protected]&lt;/a&gt;&lt;script cf-hash='f9e31' type=&quot;text/javascript&quot;&gt;\n/* &lt;![CDATA[ */!function(){try{var t=&quot;currentScript&quot;in document?document.currentScript:function(){for(var t=document.getElementsByTagName(&quot;script&quot;),e=t.length;e--;)if(t[e].getAttribute(&quot;cf-hash&quot;))return t[e]}();if(t&amp;&amp;t.previousSibling){var e,r,n,i,c=t.previousSibling,a=c.getAttribute(&quot;data-cfemail&quot;);if(a){for(e=&quot;&quot;,r=parseInt(a.substr(0,2),16),n=2;a.length-n;n+=2)i=parseInt(a.substr(n,2),16)^r,e+=String.fromCharCode(i);e=document.createTextNode(e),c.parentNode.replaceChild(e,c)}}}catch(u){}}();/* ]]&gt; */&lt;/script&gt;\nFormat settings, CABAC                   : Yes\nFormat settings, ReFrames                : 3 frames\nCodec ID                                 : V_MPEG4/ISO/AVC\nDuration                                 : 1h 47mn\nBit rate mode                            : Variable\nBit rate                                 : 1 841 Kbps\nMaximum bit rate                         : 40.0 Mbps\nWidth                                    : 720 pixels\nHeight                                   : 304 pixels\nDisplay aspect ratio                     : 2.35:1\nFrame rate mode                          : Constant\nFrame rate                               : 23.976 fps\nColor space                              : YUV\nChroma subsampling                       : 4:2:0\nBit depth                                : 8 bits\nScan type                                : Progressive\nBits/(Pixel*Frame)                       : 0.351\nStream size                              : 1.39 GiB (89%)\nDefault                                  : Yes\nForced                                   : No\nColor primaries                          : BT.709\nTransfer characteristics                 : BT.709\nMatrix coefficients                      : BT.709\n\nAudio\nID                                       : 2\nFormat                                   : AC-3\nFormat/Info                              : Audio Coding 3\nMode extension                           : CM (complete main)\nFormat settings, Endianness              : Big\nCodec ID                                 : A_AC3\nDuration                                 : 1h 47mn\nBit rate mode                            : Constant\nBit rate                                 : 192 Kbps\nChannel(s)                               : 2 channels\nChannel positions                        : Front: L R\nSampling rate                            : 48.0 KHz\nBit depth                                : 16 bits\nCompression mode                         : Lossy\nStream size                              : 148 MiB (9%)\nLanguage                                 : English\nDefault                                  : Yes\nForced                                   : No\n\n &lt;a href=&quot;\nhttp://extraimago.com/image/2Wl&quot; rel=&quot;nofollow&quot; target=&quot;_NEW&quot;&gt;\nhttp://extraimago.com/image/2Wl&lt;/a&gt; &lt;a href=&quot;\nhttp://extraimago.com/image/2WI&quot; rel=&quot;nofollow&quot; target=&quot;_NEW&quot;&gt;\nhttp://extraimago.com/image/2WI&lt;/a&gt; &lt;a href=&quot;\nhttp://extraimago.com/image/2Wd&quot; rel=&quot;nofollow&quot; target=&quot;_NEW&quot;&gt;\nhttp://extraimago.com/image/2Wd&lt;/a&gt; &lt;a href=&quot;\nhttp://extraimago.com/image/2Wh&quot; rel=&quot;nofollow&quot; target=&quot;_NEW&quot;&gt;\nhttp://extraimago.com/image/2Wh&lt;/a&gt;","torrent":{"xt":"urn:btih:6e6bb1803fc7325e3bc73d6949c02363720d012a","amp;dn":"Faraway+2014+UNRATED+HDRIP+x264+AC3+TiTAN","amp;tr":["udp%3A%2F%2Ftracker.openbittorrent.com%3A80","udp%3A%2F%2Fopen.demonii.com%3A1337","udp%3A%2F%2Ftracker.coppersurfer.tk%3A6969","udp%3A%2F%2Fexodus.desync.com%3A6969"],"infoHash":"6e6bb1803fc7325e3bc73d6949c02363720d012a","infoHashBuffer":{"type":"Buffer","data":[110,107,177,128,63,199,50,94,59,199,61,105,73,192,35,99,114,13,1,42]},"announce":[],"urlList":[]}}